<svg xmlns="http://www.w3.org/2000/svg" viewBox="0 0 200 200" width="100%" height="100%">
  <rect width="200" height="200" rx="16" fill="url(#bg)" />
  <defs>
    <linearGradient id="bg" x1="0%" y1="0%" x2="100%" y2="100%">
      <stop offset="0%" stop-color="#2e1065" />
      <stop offset="100%" stop-color="#3b0764" />
    </linearGradient>
    <linearGradient id="glow" x1="0%" y1="0%" x2="100%" y2="100%">
      <stop offset="0%" stop-color="#f472b6" />
      <stop offset="100%" stop-color="#db2777" />
    </linearGradient>
  </defs>
  
  <!-- Musical Note -->
  <path d="M 60,140 A 15,12 0 1,1 45,125 C 45,100 85,90 85,90 L 85,50 L 140,40 L 140,80 C 140,80 120,95 105,95 A 15,12 0 1,1 90,83 C 90,83 140,80 140,65 L 140,55 L 85,63 L 85,120 C 85,120 75,130 60,140 Z" fill="url(#glow)" />
  
  <!-- Soundwaves / sparkles -->
  <path d="M 120,120 Q 140,110 160,120" fill="none" stroke="#f1f5f9" stroke-width="4" stroke-linecap="round" opacity="0.6" />
  <path d="M 125,135 Q 145,130 155,140" fill="none" stroke="#f1f5f9" stroke-width="3" stroke-linecap="round" opacity="0.4" />
  
  <circle cx="45" cy="50" r="5" fill="#f472b6" />
  <circle cx="165" cy="65" r="4" fill="#db2777" />
</svg>
